<svg xmlns="http://www.w3.org/2000/svg" width="120" height="59" viewBox="0 0 120 59">
    <g fill="none" fill-rule="evenodd" stroke="#FFF" stroke-linecap="round" stroke-linejoin="round" stroke-width="2">
        <path d="M28.64 9.093c.347-5.64-1.294-8.662-4.922-9.067-5.443-.607-12.302 9.428-7.92 23.168C.345 22.498-4.414 44.148 4.385 46.287c9.84 2.392 19.682-11.896 22.642-16.02" transform="translate(1 1)"/>
        <path d="M29.547 21.299c-1.917 4.167-3.513 10.379-4.789 18.636 4.698-9.317 8.543-13.975 11.532-13.975 2.99 0 2.99 3.184 0 9.553 4.044-4.794 6.495-5.992 7.352-3.595 1.286 3.595 3.078 9.195 8.049 5.563" transform="translate(1 1)"/>
        <path d="M46.805 56.512C52.021 36.078 54.883 25 55.392 23.278c.764-2.583-2.823 9.028-1.504 7.84 1.319-1.19 5.34-7.319 8.102-5.69 2.762 1.628-2.24 9.944-5.523 11.783-3.283 1.84-6.476-1.748 0-4.656 4.317-1.938 8.476-2.584 12.475-1.938" transform="translate(1 1)"/>
        <path d="M75.16 28.942c.616-2.194.314-3.29-.906-3.29-1.831 0-8.72 7.216-5.818 8.66 1.934.963 4.674-1.632 8.221-7.785-2.598 3.705-3.399 6.3-2.403 7.785.995 1.485 4.027-.005 9.094-4.471M77.725 18.587c13.21-2.52 21.015-3.956 23.418-4.31M90.86 6.586C83.3 30.6 79.791 43.703 80.336 45.894M93.852 21.812c-1.11.726-1.388 1.09-.833 1.09M91.542 28.378c-2.45 6.239-2.678 9.553-.683 9.94 1.995.389 6.527-2.297 13.595-8.058" transform="translate(1 1)"/>
        <path d="M107.284 29.157c-1.521-1.17-2.82-.093-3.898 3.23-1.615 4.985.137 7.182 2.018 4.536 1.88-2.645 2.347-6.636 2.113-7.06-.233-.422-1.706-.758-1.514 0 .129.506 3.75.415 10.862-.272" transform="translate(1 1)"/>
        <path fill="#FFF" d="M117.67 38.577s-2.015.476-.67-.85c.532-.525.67.85.67.85z" transform="translate(1 1)"/>
    </g>
</svg>
